<?xml version="1.0" standalone="no"?><!DOCTYPE svg PUBLIC "-//W3C//DTD SVG 1.1//EN" "http://www.w3.org/Graphics/SVG/1.1/DTD/svg11.dtd"><svg class="icon" width="16px" height="16.00px" viewBox="0 0 1024 1024" version="1.1" xmlns="http://www.w3.org/2000/svg"><path d="M784 992H240v-16a48 48 0 0 1 48-48h448a48 48 0 0 1 48 48v16z" fill="#515F5F" /><path d="M688 928H288a48 48 0 0 0-48 48v16h496v-16a48 48 0 0 0-48-48z" fill="#6C7F7F" /><path d="M384 928V768h256v160" fill="#364040" /><path d="M384 768h208v160H384z" fill="#515F5F" /><path d="M992 640H32V208a64 64 0 0 1 64-64h832a64 64 0 0 1 64 64v432z" fill="#7FCDEE" /><path d="M880 144H96a64 64 0 0 0-64 64v432h912V208a64 64 0 0 0-64-64z" fill="#A9DDF3" /><path d="M832 464V80a48 48 0 0 0-48-48H240a48 48 0 0 0-48 48v384a48 48 0 0 0 48 48h336l64 64 64-64h80a48 48 0 0 0 48-48z" fill="#929999" /><path d="M784 464V80a48 48 0 0 0-48-48H240a48 48 0 0 0-48 48v384a48 48 0 0 0 48 48h336l40 40L656 512h80a48 48 0 0 0 48-48z" fill="#C2CCCC" /><path d="M704 448L592 96H432l-112 352h96l32-112h128l32 112z" fill="#FFF284" /><path d="M704 448L592 96H432l-112 352h96l32-112h128l32 112z" fill="#FFF284" /><path d="M464 272h96l-48-112z" fill="#C2CCCC" /><path d="M992 640v64a64 64 0 0 1-64 64H96a64 64 0 0 1-64-64v-64" fill="#515F5F" /><path d="M944 704v-64H32v64a64 64 0 0 0 64 64h784a64 64 0 0 0 64-64z" fill="#6C7F7F" /><path d="M448 688h128v32h-128zM880 688h32v32h-32zM816 688h32v32h-32zM112 688h32v32H112zM176 688h32v32h-32z" fill="#4D4D4D" /></svg>