<?xml version="1.0" standalone="no"?><!DOCTYPE svg PUBLIC "-//W3C//DTD SVG 1.1//EN" "http://www.w3.org/Graphics/SVG/1.1/DTD/svg11.dtd"><svg class="icon" width="32px" height="32.00px" viewBox="0 0 1024 1024" version="1.1" xmlns="http://www.w3.org/2000/svg"><path fill="#ea986c" d="M768 416h-441.6v-134.4c0-115.2 89.6-204.8 204.8-204.8s204.8 89.6 204.8 204.8v64c0 19.2 19.2 38.4 38.4 38.4s38.4-19.2 38.4-38.4v-70.4c0-153.6-121.6-275.2-275.2-275.2s-275.2 128-275.2 275.2v140.8c-64 19.2-102.4 76.8-102.4 134.4v326.4c0 76.8 64 140.8 140.8 140.8h480c76.8 0 140.8-64 140.8-140.8v-326.4c-12.8-76.8-76.8-134.4-153.6-134.4z m70.4 460.8c0 38.4-25.6 64-64 64h-480c-38.4 0-64-25.6-64-64v-326.4c0-38.4 25.6-64 64-64h480c38.4 0 64 25.6 64 64v326.4zM531.2 588.8c-19.2 0-38.4 19.2-38.4 38.4v134.4c0 19.2 19.2 38.4 38.4 38.4s38.4-19.2 38.4-38.4v-140.8c0-6.4-6.4-19.2-12.8-25.6-6.4-6.4-19.2-6.4-25.6-6.4z" /></svg>