<?xml version="1.0" standalone="no"?><!DOCTYPE svg PUBLIC "-//W3C//DTD SVG 1.1//EN" "http://www.w3.org/Graphics/SVG/1.1/DTD/svg11.dtd"><svg class="icon" width="16px" height="16.00px" viewBox="0 0 1024 1024" version="1.1" xmlns="http://www.w3.org/2000/svg"><path d="M579.094 196.89v-0.008L491.188 146.126h-0.008c-28.726-17.704-66.656-16.666-108.25 7.35L162.374 280.812C72.694 332.586 0 471.492 0 591.054c0 64.406 21.094 110.048 54.57 130.376l91.812 53.1c0.086 0.048 0.164 0.096 0.25 0.15l0.032 0.016a81.024 81.024 0 0 0 7.062 3.594l-3.1 15.022c-1.884 9.14 0.304 15.384 4.334 17.68l89.556 51.68c4.258 3.242 11.086 1.508 17.304-6.812l124.922-167.15 86.586-49.992c89.672-51.772 162.376-190.68 162.376-310.24v-0.01c0-65.694-21.96-111.882-56.61-131.578z m0 0" fill="#0D68BE" /><path d="M252.774 333.054L473.328 205.72c89.672-51.772 162.376 3.18 162.376 122.75S563 586.946 473.328 638.72l-86.586 49.986-124.92 167.156c-11.314 15.132-24.68 8.514-20.8-10.306l17.024-82.546-5.272 3.046c-89.672 51.774-162.376-3.186-162.376-122.758 0-119.56 72.696-258.468 162.376-310.24z m0 0" fill="#33AEFF" /><path d="M261.016 527.6l-13.102-7.326c-7.546-6.242-18.21-6.712-30.04 0.116-22.874 13.212-41.42 48.65-41.42 79.156 0 16.33 5.32 27.922 13.764 33.158l14.102 8.116c7.47 5.446 17.696 5.562 28.976-0.944 22.876-13.212 41.422-48.65 41.422-79.158 0-16.28-5.288-27.866-13.702-33.116z m0 0" fill="#D1D1D1" /><path d="M274.72 560.726c0 30.5-18.548 65.938-41.424 79.15s-41.42-0.814-41.42-31.32c0-30.5 18.546-65.94 41.42-79.15s41.422 0.812 41.422 31.32z m0 0" fill="#FFFFFF" /><path d="M413.9 438.89l-13.104-7.32c-7.546-6.24-18.21-6.71-30.04 0.118-22.874 13.21-41.42 48.648-41.42 79.148 0 16.336 5.312 27.93 13.766 33.164l14.094 8.118c7.476 5.444 17.694 5.56 28.984-0.954 22.874-13.204 41.42-48.64 41.42-79.148 0-16.29-5.296-27.876-13.7-33.126z m0 0" fill="#D1D1D1" /><path d="M427.6 472.016c0 30.508-18.546 65.938-41.428 79.148-22.876 13.212-41.422-0.812-41.422-31.312 0-30.508 18.546-65.938 41.42-79.148 22.884-13.212 41.432 0.812 41.432 31.312z m0 0" fill="#FFFFFF" /><path d="M566.774 350.188l-13.102-7.328c-7.546-6.242-18.212-6.712-30.04 0.116-22.874 13.212-41.42 48.65-41.42 79.156 0 16.328 5.32 27.922 13.764 33.158l14.102 8.124c7.468 5.438 17.696 5.554 28.976-0.954 22.876-13.21 41.422-48.648 41.422-79.156 0-16.28-5.288-27.866-13.702-33.116z m0 0" fill="#D1D1D1" /><path d="M580.476 383.304c0 30.508-18.546 65.946-41.42 79.156-22.876 13.204-41.424-0.812-41.424-31.32 0-30.5 18.548-65.936 41.422-79.148 22.876-13.21 41.422 0.812 41.422 31.312z m0 0" fill="#FFFFFF" /><path d="M967.672 302.46l-89.242-51.56h-0.008c-28.594-17.032-66.11-15.728-107.196 7.99L550.68 386.226c-89.68 51.774-162.376 190.68-162.376 310.242 0 66.97 22.806 113.658 58.618 132.696v0.008l87.414 50.57 0.008-0.008c28.54 16.742 65.866 15.32 106.726-8.266l86.586-49.992 124.922 22.906c11.312 2.08 24.68-19.976 20.798-34.312l-17.024-62.89 5.274-3.048C951.306 692.36 1024 553.452 1024 433.882c0-65.522-21.836-111.64-56.328-131.42z m0 0" fill="#239D58" /><path d="M861.626 311.132l-220.556 127.336c-89.672 51.782-162.374 190.68-162.374 310.25s72.702 174.524 162.374 122.75l86.586-49.992 124.922 22.906c11.312 2.08 24.68-19.968 20.798-34.312l-17.024-62.89 5.274-3.048C951.306 692.36 1024 553.452 1024 433.882s-72.696-174.522-162.376-122.75z m0 0" fill="#A4C639" /><path d="M651.08 635.804l-13.104-7.328c-7.546-6.24-18.21-6.702-30.04 0.126-22.874 13.21-41.42 48.648-41.42 79.148 0 16.336 5.312 27.93 13.766 33.164l14.092 8.118c7.478 5.444 17.696 5.56 28.986-0.954 22.874-13.202 41.42-48.64 41.42-79.148 0-16.29-5.288-27.876-13.7-33.126z m0 0" fill="#D1D1D1" /><path d="M664.78 668.93c0 30.508-18.546 65.946-41.42 79.148-22.884 13.212-41.43-0.812-41.43-31.312 0-30.508 18.546-65.946 41.43-79.148 22.874-13.212 41.42 0.812 41.42 31.312z m0 0" fill="#FFFFFF" /><path d="M803.954 547.1l-13.094-7.326c-7.556-6.242-18.212-6.712-30.04 0.116-22.882 13.212-41.43 48.65-41.43 79.156 0 16.33 5.32 27.922 13.766 33.158l14.1 8.116c7.47 5.446 17.698 5.562 28.98-0.944 22.88-13.212 41.42-48.65 41.42-79.158 0-16.28-5.288-27.866-13.702-33.116z m0 0" fill="#D1D1D1" /><path d="M817.656 580.22c0 30.506-18.54 65.944-41.42 79.154-22.876 13.204-41.424-0.812-41.424-31.32 0-30.5 18.548-65.936 41.422-79.148s41.422 0.812 41.422 31.312z m0 0" fill="#FFFFFF" /><path d="M956.836 458.39l-13.1-7.328c-7.548-6.24-18.212-6.702-30.04 0.126-22.876 13.202-41.422 48.648-41.422 79.148 0 16.328 5.32 27.93 13.766 33.164l14.1 8.118c7.47 5.436 17.688 5.56 28.978-0.954 22.874-13.21 41.42-48.648 41.42-79.148 0-16.29-5.288-27.876-13.702-33.126z m0 0" fill="#D1D1D1" /><path d="M970.54 491.516c0 30.5-18.548 65.938-41.422 79.148-22.884 13.212-41.422-0.812-41.422-31.312 0-30.508 18.54-65.946 41.42-79.156 22.876-13.204 41.424 0.812 41.424 31.32z m0 0" fill="#FFFFFF" /></svg>