<?xml version="1.0" standalone="no"?><!DOCTYPE svg PUBLIC "-//W3C//DTD SVG 1.1//EN" "http://www.w3.org/Graphics/SVG/1.1/DTD/svg11.dtd"><svg t="1556073945727" class="icon" style="" viewBox="0 0 1024 1024" version="1.1" xmlns="http://www.w3.org/2000/svg" p-id="3093" xmlns:xlink="http://www.w3.org/1999/xlink" width="16" height="16"><defs><style type="text/css"></style></defs><path d="M455.212 532.79c56.378 110.245 191.453 153.914 301.699 97.536 110.246-56.378 153.914-191.454 97.536-301.7-56.378-110.245-191.453-153.914-301.699-97.536-110.246 56.378-153.914 191.454-97.536 301.7z m115.372-266.821c90.983-46.528 202.458-10.49 248.985 80.494 46.528 90.983 10.489 202.457-80.494 248.985-90.983 46.527-202.458 10.488-248.985-80.495-46.528-90.983-10.489-202.458 80.494-248.984z m308.508 535.75L815.74 677.836c-6.982-13.654-23.711-19.062-37.366-12.08l-6.445 3.296c-13.654 6.982-19.062 23.712-12.08 37.366L823.2 830.3c6.983 13.654 23.713 19.063 37.367 12.08l6.445-3.295c13.654-6.984 19.063-23.713 12.08-37.367z m-744.79-550.117h302.591c12.177 0 22.048-9.87 22.048-22.047s-9.871-22.047-22.048-22.047H134.302c-12.177 0-22.047 9.87-22.047 22.047s9.87 22.047 22.047 22.047z m0 197.711h224.027c12.176 0 22.047-9.87 22.047-22.047s-9.87-22.047-22.047-22.047H134.302c-12.177 0-22.047 9.87-22.047 22.047s9.87 22.047 22.047 22.047z m0 197.711H423.29c12.176 0 22.047-9.87 22.047-22.047 0-12.176-9.871-22.047-22.047-22.047H134.302c-12.177 0-22.047 9.87-22.047 22.047-0.001 12.175 9.87 22.047 22.047 22.047zM729.027 802.43H132.512c-11.189 0-20.258 9.07-20.258 20.258s9.07 20.258 20.258 20.258h596.515c11.189 0 20.258-9.07 20.258-20.258s-9.07-20.258-20.258-20.258z" fill="" p-id="3094"></path></svg>