<?xml version="1.0" standalone="no"?><!DOCTYPE svg PUBLIC "-//W3C//DTD SVG 1.1//EN" "http://www.w3.org/Graphics/SVG/1.1/DTD/svg11.dtd"><svg t="1556073912831" class="icon" style="" viewBox="0 0 1024 1024" version="1.1" xmlns="http://www.w3.org/2000/svg" p-id="2353" xmlns:xlink="http://www.w3.org/1999/xlink" width="16" height="16"><defs><style type="text/css"></style></defs><path d="M272.384089 511.99776m-47.99979 0a47.99979 47.99979 0 1 0 95.99958 0 47.99979 47.99979 0 1 0-95.99958 0Z" p-id="2354"></path><path d="M512.06304 511.99776m-47.99979 0a47.99979 47.99979 0 1 0 95.99958 0 47.99979 47.99979 0 1 0-95.99958 0Z" p-id="2355"></path><path d="M751.741991 511.99776m-47.99979 0a47.99979 47.99979 0 1 0 95.99958 0 47.99979 47.99979 0 1 0-95.99958 0Z" p-id="2356"></path><path d="M406.9755 1023.99552a1198.842755 1198.842755 0 0 1-134.719411-7.231968c-78.207658-7.487967-135.551407-17.151925-174.911235-29.567871-45.055803-14.207938-69.887694-22.079903-68.351701-50.623779a34.943847 34.943847 0 0 1 27.263881-30.783865c36.095842-6.143973 66.36771-15.679931 91.007602-28.607875-0.191999-9.343959-4.67198-17.855922-12.287946-26.431884a528.189689 528.189689 0 0 1-95.679582-150.719341A505.789787 505.789787 0 0 1 0.06528 513.533753 491.773848 491.773848 0 0 1 38.721111 314.238625c26.239885-61.439731 62.655726-116.031492 108.223526-162.23929A515.197746 515.197746 0 0 1 308.73593 41.791817 510.461767 510.461767 0 0 1 507.903058 0h0.255999c73.983676 0 139.071392 12.927943 199.295128 38.463832 61.503731 26.047886 116.351491 62.079728 163.135286 107.007532a502.461802 502.461802 0 0 1 111.295514 160.255298c27.199881 61.375731 41.343819 127.99944 42.047816 198.015134a486.141873 486.141873 0 0 1-34.49585 188.543175 503.101799 503.101799 0 0 1-99.135566 156.159317A541.117633 541.117633 0 0 1 741.758035 959.9958a519.037729 519.037729 0 0 1-184.383193 54.527761c-15.615932 2.17599-33.343854 4.031982-52.095772 5.503976A1390.841915 1390.841915 0 0 1 406.9755 1023.99552z m-239.166954-85.631625c30.143868 5.631975 67.199706 10.495954 110.847515 14.655936a1138.683018 1138.683018 0 0 0 162.36729 6.399972c21.759905-0.639997 41.407819-1.727992 59.199741-3.135987 17.535923-1.407994 34.047851-3.199986 49.535783-5.247977a459.005992 459.005992 0 0 0 162.751288-47.87179 478.269908 478.269908 0 0 0 131.071427-98.36757 439.230078 439.230078 0 0 0 86.527621-136.383403 423.678146 423.678146 0 0 0 29.887869-163.967283 439.230078 439.230078 0 0 0-133.759415-312.894631 470.013944 470.013944 0 0 0-143.743371-94.207588A431.358113 431.358113 0 0 0 513.855032 63.99972c-66.879707 0.703997-125.503451 12.991943-179.583214 36.54384a449.918032 449.918032 0 0 0-141.75938 96.447578 455.550007 455.550007 0 0 0-94.911585 142.399377A426.110136 426.110136 0 0 0 64.065 512.445758a441.598068 441.598068 0 0 0 34.047851 162.495289 465.085965 465.085965 0 0 0 84.223632 132.799419c15.871931 17.791922 25.599888 37.247837 29.183872 58.047746 4.927978 28.415876-7.551967 53.119768-34.111851 67.775704a268.350826 268.350826 0 0 1-9.599958 4.799979z" p-id="2357"></path></svg>