<?xml version="1.0" standalone="no"?><!DOCTYPE svg PUBLIC "-//W3C//DTD SVG 1.1//EN" "http://www.w3.org/Graphics/SVG/1.1/DTD/svg11.dtd"><svg t="1556073887632" class="icon" style="" viewBox="0 0 1024 1024" version="1.1" xmlns="http://www.w3.org/2000/svg" p-id="1927" xmlns:xlink="http://www.w3.org/1999/xlink" width="16" height="16"><defs><style type="text/css"></style></defs><path d="M569.426921 276.616038c-49.018414 49.052183-49.018414 128.888486 0 177.975461 24.020066 23.952528 55.799864 36.873816 88.759533 36.873816 9.513678 0 19.094894-1.079588 28.64234-3.272533 22.940478-5.296633 43.890626-16.935718 60.58996-33.635051l0.033769-0.033769c17.070794-17.104563 28.777417-38.526455 33.905204-62.007239 9.209756-42.119283-3.475148-85.470627-33.938973-115.917056C698.366571 227.54646 618.479103 227.496317 569.426921 276.616038zM713.88501 377.773949c-2.328022 10.525728-7.624654 20.208251-15.349593 27.966958-7.523347 7.523347-16.935718 12.752442-27.225061 15.114233-19.397792 4.520967-39.10053-1.248434-53.032844-15.146978-22.097274-22.131043-22.097274-58.127885 0-80.241532 11.06501-11.06501 25.606191-16.598027 40.146349-16.598027s29.080316 5.51562 40.146349 16.581654C712.299909 339.196329 718.034517 358.762967 713.88501 377.773949z" p-id="1928" fill="#bfbfbf"></path><path d="M956.212104 424.970878l-17.475-234.651274c-4.149507-56.289004-49.761334-101.798501-106.066711-105.8467L598.777389 67.653843c-42.339294-3.036149-84.441181 12.532431-114.668623 42.777269L110.447485 484.07602c-57.418734 57.418734-57.418734 150.868079 0 208.286814l221.208101 221.208101c27.798113 27.831882 64.807005 43.148729 104.143918 43.148729 39.33589 0 76.344782-15.315824 104.143918-43.148729L913.468604 540.04473C943.797353 509.715981 959.38333 467.748147 956.212104 424.970878zM864.618013 491.194138 491.091808 864.721367c-30.497595 30.497595-80.090083 30.497595-110.586654 0l-221.208101-221.208101c-30.497595-30.497595-30.497595-80.090083 0-110.586654l373.695051-373.661282c14.675234-14.709003 34.545794-22.890336 55.225789-22.890336 1.855254 0 3.744277 0.067538 5.634324 0.202615l233.859235 16.817014c22.367427 1.602498 40.483017 19.667945 42.136679 42.035372L887.323131 430.098665C889.00954 452.80276 880.744295 475.068879 864.618013 491.194138z" p-id="1929" fill="#bfbfbf"></path></svg>